<svg width="18" height="17" viewBox="0 0 18 17" fill="#0056BB" xmlns="http://www.w3.org/2000/svg">
<path id="Vector" d="M0.127441 1.33872C0.127441 0.598241 0.69792 0 1.40404 0H16.7232C17.4293 0 17.9998 0.598241 17.9998 1.33872C17.9998 2.0792 17.4293 2.67744 16.7232 2.67744H1.40404C0.69792 2.67744 0.127441 2.0792 0.127441 1.33872ZM0.127441 8.03233C0.127441 7.29185 0.69792 6.69361 1.40404 6.69361H16.7232C17.4293 6.69361 17.9998 7.29185 17.9998 8.03233C17.9998 8.77281 17.4293 9.37105 16.7232 9.37105H1.40404C0.69792 9.37105 0.127441 8.77281 0.127441 8.03233ZM17.9998 14.7259C17.9998 15.4664 17.4293 16.0647 16.7232 16.0647H1.40404C0.69792 16.0647 0.127441 15.4664 0.127441 14.7259C0.127441 13.9855 0.69792 13.3872 1.40404 13.3872H16.7232C17.4293 13.3872 17.9998 13.9855 17.9998 14.7259Z" fill="#0056BB"/>
</svg>
