<svg width="29" height="28" viewBox="0 0 29 28" fill="none" xmlns="http://www.w3.org/2000/svg">
<g id="fi_1078011">
<path id="Vector" d="M14.5 6.89062C14.1874 6.89062 13.9336 7.13565 13.9336 7.4375C13.9336 7.73935 14.1874 7.98438 14.5 7.98438C14.8126 7.98438 15.0664 7.73935 15.0664 7.4375C15.0664 7.13565 14.8126 6.89062 14.5 6.89062Z" fill="#0056BB"/>
<path id="Vector_2" d="M5.09766 16.7344C5.41029 16.7344 5.66406 16.4893 5.66406 16.1875C5.66406 15.8857 5.41029 15.6406 5.09766 15.6406C4.78503 15.6406 4.53125 15.8857 4.53125 16.1875C4.53125 16.4893 4.78503 16.7344 5.09766 16.7344Z" fill="#0056BB"/>
<path id="Vector_3" d="M19.0312 1.42188C13.932 1.42188 9.74683 4.81635 9.42314 9.09201C4.56687 9.32721 0 12.7082 0 17.2812C0 19.1923 0.783234 21.044 2.20898 22.5112C2.49108 23.634 2.14858 24.8241 1.29875 25.6446C1.1368 25.801 1.08834 26.0362 1.17596 26.2406C1.26357 26.4448 1.47 26.5781 1.69922 26.5781C3.31458 26.5781 4.87132 25.9665 6.02802 24.8888C7.15486 25.2596 8.62508 25.4844 9.96875 25.4844C15.0673 25.4844 19.2521 22.0908 19.5766 17.8159C20.7626 17.7651 21.996 17.5536 22.972 17.2325C24.1287 18.3103 25.6854 18.9219 27.3008 18.9219C27.53 18.9219 27.7364 18.7886 27.824 18.5844C27.9117 18.3799 27.8632 18.1447 27.7012 17.9883C26.8514 17.1678 26.5089 15.9777 26.791 14.8549C28.2168 13.3878 29 11.5361 29 9.625C29 4.87338 24.0813 1.42188 19.0312 1.42188ZM9.96875 24.3906C8.63194 24.3906 7.10862 24.1373 6.0882 23.7453C5.86961 23.6611 5.61981 23.7164 5.46073 23.8841C4.77684 24.606 3.88763 25.1093 2.91876 25.3406C3.45264 24.353 3.58894 23.1888 3.26414 22.0856C3.23847 21.9987 3.1909 21.9192 3.12563 21.8545C1.8406 20.5766 1.13281 18.9524 1.13281 17.2812C1.13281 13.4275 5.17908 10.1719 9.96875 10.1719C14.4916 10.1719 18.4648 13.2085 18.4648 17.2812C18.4648 21.2014 14.6535 24.3906 9.96875 24.3906ZM25.8744 14.1982C25.8091 14.2632 25.7615 14.3427 25.7359 14.4294C25.4111 15.5325 25.5474 16.6968 26.0812 17.6844C25.1124 17.4532 24.2232 16.9497 23.5393 16.2279C23.3802 16.0604 23.1304 16.0049 22.9118 16.089C22.0275 16.4287 20.7659 16.6639 19.5749 16.7207C19.4094 14.6526 18.3409 12.7089 16.5143 11.2656H23.9023C24.2152 11.2656 24.4688 11.0208 24.4688 10.7188C24.4688 10.4167 24.2152 10.1719 23.9023 10.1719H14.7741C13.4884 9.53998 12.0448 9.17148 10.5588 9.09415C10.8843 5.42111 14.56 2.51562 19.0312 2.51562C23.8209 2.51562 27.8672 5.77124 27.8672 9.625C27.8672 11.2962 27.1594 12.9203 25.8744 14.1982Z" fill="#0056BB"/>
<path id="Vector_4" d="M14.5 15.6406H7.36328C7.05043 15.6406 6.79688 15.8854 6.79688 16.1875C6.79688 16.4896 7.05043 16.7344 7.36328 16.7344H14.5C14.8129 16.7344 15.0664 16.4896 15.0664 16.1875C15.0664 15.8854 14.8129 15.6406 14.5 15.6406Z" fill="#0056BB"/>
<path id="Vector_5" d="M14.5 18.9219H5.09766C4.78481 18.9219 4.53125 19.1667 4.53125 19.4688C4.53125 19.7708 4.78481 20.0156 5.09766 20.0156H14.5C14.8129 20.0156 15.0664 19.7708 15.0664 19.4688C15.0664 19.1667 14.8129 18.9219 14.5 18.9219Z" fill="#0056BB"/>
<path id="Vector_6" d="M23.9023 6.89062H16.7656C16.4528 6.89062 16.1992 7.13544 16.1992 7.4375C16.1992 7.73956 16.4528 7.98438 16.7656 7.98438H23.9023C24.2152 7.98438 24.4688 7.73956 24.4688 7.4375C24.4688 7.13544 24.2152 6.89062 23.9023 6.89062Z" fill="#0056BB"/>
</g>
</svg>
