<svg width="30" height="25" viewBox="0 0 30 25" fill="none" xmlns="http://www.w3.org/2000/svg">
<path id="Vector" d="M5.73999 0.336373C5.65217 0.237381 5.54558 0.156804 5.42639 0.0993108C5.3072 0.0418179 5.17778 0.0085529 5.04564 0.00144404C4.91351 -0.00566482 4.78127 0.0135237 4.6566 0.0578975C4.53193 0.102271 4.41731 0.170948 4.31938 0.259947C4.22144 0.348946 4.14215 0.456497 4.08609 0.576366C4.03003 0.696236 3.99832 0.82604 3.9928 0.958256C3.98727 1.09047 4.00804 1.22247 4.05391 1.3466C4.09978 1.47072 4.16982 1.58452 4.25999 1.68137L6.66499 4.32762C2.12499 7.11387 0.172488 11.4089 0.086238 11.6039C0.0293795 11.7318 0 11.8702 0 12.0101C0 12.1501 0.0293795 12.2885 0.086238 12.4164C0.129988 12.5151 1.18874 14.8626 3.54249 17.2164C6.67874 20.3514 10.64 22.0089 15 22.0089C17.2408 22.0216 19.4589 21.5603 21.5087 20.6551L24.2587 23.6814C24.3466 23.7804 24.4531 23.8609 24.5723 23.9184C24.6915 23.9759 24.8209 24.0092 24.9531 24.0163C25.0852 24.0234 25.2175 24.0042 25.3421 23.9598C25.4668 23.9155 25.5814 23.8468 25.6793 23.7578C25.7773 23.6688 25.8566 23.5612 25.9126 23.4414C25.9687 23.3215 26.0004 23.1917 26.0059 23.0595C26.0115 22.9273 25.9907 22.7953 25.9448 22.6712C25.899 22.547 25.8289 22.4332 25.7387 22.3364L5.73999 0.336373ZM11.6562 9.81637L16.865 15.5476C16.0806 15.9603 15.1814 16.1007 14.3085 15.9469C13.4357 15.7931 12.6386 15.3538 12.0425 14.6979C11.4464 14.042 11.085 13.2067 11.0151 12.3231C10.9452 11.4396 11.1707 10.5579 11.6562 9.81637ZM15 20.0089C11.1525 20.0089 7.79124 18.6101 5.00874 15.8526C3.86663 14.7176 2.89526 13.4229 2.12499 12.0089C2.71124 10.9101 4.58249 7.83512 8.04374 5.83637L10.2937 8.30512C9.42266 9.42075 8.97403 10.8084 9.02715 12.2228C9.08027 13.6373 9.63173 14.9874 10.584 16.0345C11.5363 17.0817 12.8282 17.7584 14.2312 17.9452C15.6343 18.132 17.0582 17.8167 18.2512 17.0551L20.0925 19.0801C18.4675 19.7036 16.7405 20.0185 15 20.0089ZM15.75 8.08012C15.4894 8.03039 15.2593 7.87919 15.1102 7.65977C14.9611 7.44036 14.9053 7.1707 14.955 6.91012C15.0047 6.64955 15.1559 6.4194 15.3753 6.27031C15.5948 6.12122 15.8644 6.06539 16.125 6.11512C17.3995 6.36221 18.56 7.01469 19.4333 7.97523C20.3067 8.93578 20.8462 10.1529 20.9712 11.4451C20.9959 11.7092 20.9147 11.9722 20.7455 12.1764C20.5762 12.3806 20.3328 12.5092 20.0687 12.5339C20.0375 12.5357 20.0062 12.5357 19.975 12.5339C19.725 12.5349 19.4838 12.4424 19.2987 12.2744C19.1136 12.1064 18.9981 11.8752 18.975 11.6264C18.8908 10.7669 18.5315 9.95748 17.9504 9.31855C17.3694 8.67963 16.5977 8.24529 15.75 8.08012ZM29.91 12.4164C29.8575 12.5339 28.5912 15.3376 25.74 17.8914C25.6426 17.9814 25.5282 18.0512 25.4036 18.0966C25.2789 18.142 25.1465 18.1621 25.014 18.1559C24.8814 18.1496 24.7515 18.117 24.6317 18.06C24.5119 18.003 24.4047 17.9228 24.3162 17.8239C24.2277 17.7251 24.1598 17.6096 24.1163 17.4843C24.0729 17.3589 24.0549 17.2262 24.0633 17.0938C24.0716 16.9614 24.1063 16.832 24.1652 16.7131C24.2241 16.5942 24.306 16.4883 24.4062 16.4014C25.8051 15.1446 26.9801 13.6593 27.8812 12.0089C27.1093 10.5936 26.1358 9.29798 24.9912 8.16262C22.2087 5.40762 18.8475 4.00887 15 4.00887C14.1893 4.00788 13.3799 4.07352 12.58 4.20512C12.4499 4.22813 12.3166 4.22513 12.1876 4.1963C12.0587 4.16748 11.9368 4.11339 11.8289 4.03718C11.721 3.96096 11.6293 3.86412 11.559 3.75225C11.4887 3.64038 11.4413 3.5157 11.4196 3.38541C11.3978 3.25512 11.402 3.1218 11.432 2.99315C11.462 2.86451 11.5172 2.74309 11.5945 2.6359C11.6717 2.52871 11.7694 2.43789 11.8819 2.36867C11.9944 2.29945 12.1195 2.25321 12.25 2.23262C13.1589 2.08254 14.0787 2.0077 15 2.00887C19.36 2.00887 23.3212 3.66637 26.4575 6.80262C28.8112 9.15637 29.87 11.5051 29.9137 11.6039C29.9706 11.7318 30 11.8702 30 12.0101C30 12.1501 29.9706 12.2885 29.9137 12.4164H29.91Z" fill="#0056BB"/>
</svg>
