<svg width="20" height="22" viewBox="0 0 20 22" fill="none" xmlns="http://www.w3.org/2000/svg">
<g id="instagram">
<path id="Vector" d="M14.75 2H6.25C3.90279 2 2 4.01472 2 6.5V15.5C2 17.9853 3.90279 20 6.25 20H14.75C17.0972 20 19 17.9853 19 15.5V6.5C19 4.01472 17.0972 2 14.75 2Z" stroke="white" stroke-width="2" stroke-linecap="round" stroke-linejoin="round"/>
<path id="Vector_2" d="M13.3333 10.4223C13.4362 11.1852 13.3177 11.9643 12.9948 12.6489C12.6719 13.3335 12.161 13.8886 11.5347 14.2353C10.9084 14.5821 10.1987 14.7028 9.5065 14.5802C8.81428 14.4577 8.17481 14.0982 7.67904 13.5529C7.18327 13.0075 6.85645 12.3041 6.74507 11.5427C6.63368 10.7812 6.7434 10.0005 7.05862 9.31163C7.37383 8.62274 7.8785 8.06072 8.50083 7.70551C9.12316 7.3503 9.83147 7.21999 10.525 7.33312C11.2324 7.44852 11.8874 7.81113 12.3931 8.3674C12.8988 8.92368 13.2284 9.64411 13.3333 10.4223Z" stroke="white" stroke-width="2" stroke-linecap="round" stroke-linejoin="round"/>
<path id="Vector_3" d="M14.5833 5.9585H14.592" stroke="white" stroke-width="2" stroke-linecap="round" stroke-linejoin="round"/>
</g>
</svg>
