<svg width="22" height="20" viewBox="0 0 22 20" fill="none" xmlns="http://www.w3.org/2000/svg">
<g id="fi_126473" clip-path="url(#clip0_6_2334)">
<g id="Group">
<path id="Vector" d="M21.0512 13.5968C21.502 13.074 21.7183 12.5136 21.6907 11.9364C21.663 11.3007 21.3502 10.803 21.0926 10.4977C21.3916 9.82016 21.5066 8.75366 20.5083 7.92555C19.7768 7.31911 18.5346 7.04726 16.814 7.12254C15.6041 7.17273 14.5919 7.37767 14.5505 7.38603H14.5459C14.3159 7.42367 14.0721 7.46968 13.8236 7.51987C13.8052 7.2522 13.8559 6.5872 14.3987 5.08992C15.0428 3.30824 15.006 1.94479 14.2791 1.03304C13.5154 0.0752824 12.2963 0 11.9374 0C11.5924 0 11.2749 0.129653 11.0495 0.368047C10.5388 0.90757 10.5986 1.90297 10.663 2.36303C10.0558 3.84358 8.35355 7.47386 6.91357 8.48181C6.88597 8.49854 6.86296 8.51945 6.83996 8.54036C6.41671 8.94605 6.13147 9.38519 5.93824 9.76997C5.66681 9.63614 5.35857 9.56085 5.02733 9.56085H2.22097C1.16284 9.56085 0.307129 10.343 0.307129 11.3007V18.097C0.307129 19.059 1.16744 19.8369 2.22097 19.8369H5.02733C5.43678 19.8369 5.81863 19.7198 6.13147 19.519L7.21261 19.6361C7.37823 19.657 10.3226 19.9958 13.3452 19.9414C13.8927 19.9791 14.4079 20 14.8864 20C15.7099 20 16.4276 19.9414 17.0257 19.8243C18.4334 19.5525 19.395 19.0088 19.8826 18.21C20.2553 17.5993 20.2553 16.9929 20.1955 16.6081C21.111 15.8553 21.272 15.023 21.2398 14.4375C21.2214 14.0987 21.1386 13.8101 21.0512 13.5968ZM2.22097 18.7077C1.84833 18.7077 1.54929 18.4316 1.54929 18.097V11.2965C1.54929 10.9578 1.85293 10.6859 2.22097 10.6859H5.02733C5.39998 10.6859 5.69901 10.9619 5.69901 11.2965V18.0928C5.69901 18.4316 5.39538 18.7035 5.02733 18.7035H2.22097V18.7077ZM19.8734 13.1075C19.6802 13.2915 19.6434 13.5717 19.7906 13.7892C19.7906 13.7934 19.9792 14.0862 20.0022 14.4877C20.0344 15.0355 19.7446 15.5207 19.1373 15.9348C18.9211 16.0853 18.8337 16.3446 18.9257 16.5788C18.9257 16.583 19.1235 17.1351 18.8015 17.6579C18.4932 18.1598 17.8078 18.5194 16.768 18.7202C15.9353 18.8833 14.8036 18.9126 13.4142 18.8122C13.3958 18.8122 13.3728 18.8122 13.3498 18.8122C10.3916 18.8708 7.40123 18.5194 7.36903 18.5153H7.36443L6.89977 18.4651C6.92737 18.348 6.94117 18.2225 6.94117 18.097V11.2965C6.94117 11.1167 6.90897 10.941 6.85376 10.7779C6.93657 10.4977 7.1666 9.87453 7.70947 9.34337C9.77513 7.85445 11.7948 2.83145 11.8822 2.61397C11.919 2.52614 11.9282 2.42995 11.9098 2.33375C11.8316 1.86533 11.8592 1.29235 11.9696 1.12087C12.2134 1.12505 12.8713 1.18779 13.267 1.68549C13.7362 2.2752 13.7178 3.32915 13.2118 4.72606C12.4389 6.85487 12.3745 7.97574 12.9863 8.46926C13.29 8.71602 13.6948 8.72857 13.9893 8.63237C14.2699 8.57382 14.5367 8.52363 14.7898 8.48599C14.8082 8.48181 14.8312 8.47762 14.8496 8.47344C16.262 8.19322 18.7923 8.02175 19.671 8.74948C20.4163 9.36846 19.8872 10.1882 19.8274 10.276C19.6572 10.5102 19.7078 10.8156 19.9378 11.0038C19.9424 11.0079 20.4255 11.422 20.4485 11.9783C20.4669 12.3505 20.2737 12.7311 19.8734 13.1075Z" fill="#0056BB"/>
</g>
</g>
<defs>
<clipPath id="clip0_6_2334">
<rect width="22" height="20" fill="white"/>
</clipPath>
</defs>
</svg>
