<svg width="30" height="30" viewBox="0 0 30 30" fill="none" xmlns="http://www.w3.org/2000/svg">
<g id="g1170">
<g id="g1172">
<g id="Clip path group">
<mask id="mask0_58_237" style="mask-type:luminance" maskUnits="userSpaceOnUse" x="0" y="0" width="30" height="30">
<g id="clipPath1178">
<path id="path1176" d="M0 3.8147e-06H30V30H0V3.8147e-06Z" fill="white"/>
</g>
</mask>
<g mask="url(#mask0_58_237)">
<g id="g1174">
<g id="g1180">
<path id="path1182" d="M15 16.1719C12.4154 16.1719 10.3125 14.0689 10.3125 11.4844C10.3125 8.89981 12.4154 6.79688 15 6.79688C17.5846 6.79688 19.6875 8.89981 19.6875 11.4844C19.6875 14.0689 17.5846 16.1719 15 16.1719Z" stroke="#0056BB" stroke-miterlimit="10" stroke-linecap="round" stroke-linejoin="round"/>
</g>
<g id="g1184">
<path id="path1186" d="M6.24905 26.4826C6.24964 26.475 6.25023 26.4674 6.2514 26.4598C6.6762 22.0019 10.4308 18.5156 15 18.5156C19.5692 18.5156 23.3232 22.0014 23.7492 26.4592" stroke="#0056BB" stroke-miterlimit="10" stroke-linecap="round" stroke-linejoin="round"/>
</g>
<g id="g1188">
<path id="path1190" d="M26.3672 5.39063C26.3672 5.71424 26.1048 5.97656 25.7812 5.97656C25.4577 5.97656 25.1953 5.71424 25.1953 5.39063C25.1953 5.06701 25.4577 4.80469 25.7812 4.80469C26.1048 4.80469 26.3672 5.06701 26.3672 5.39063Z" fill="#0056BB"/>
</g>
<g id="g1192">
<path id="path1194" d="M27.3294 7.52391C28.6525 9.70295 29.4141 12.2616 29.4141 15C29.4141 19.6752 27.1939 23.8271 23.7492 26.4592V26.4598C21.324 28.3137 18.2918 29.4141 15 29.4141C11.7088 29.4141 8.67656 28.3137 6.25142 26.4598C2.80664 23.8277 0.585938 19.6758 0.585938 15C0.585938 7.03359 7.03242 0.585939 15 0.585939C18.3323 0.585939 21.3988 1.71387 23.8389 3.60926" stroke="#0056BB" stroke-miterlimit="10" stroke-linecap="round" stroke-linejoin="round"/>
</g>
</g>
</g>
</g>
</g>
</g>
</svg>
