<svg width="25" height="25" viewBox="0 0 17 17" fill="none" xmlns="http://www.w3.org/2000/svg">
<g id="pen-to-square-regular 1">
<path id="Vector" d="M14.6426 1.95571L15.0443 2.35747C15.3564 2.66958 15.3564 3.17427 15.0443 3.48306L14.0781 4.45259L12.5475 2.92192L13.5137 1.95571C13.8258 1.6436 14.3305 1.6436 14.6393 1.95571H14.6426ZM6.96602 8.50669L11.4219 4.04751L12.9525 5.57817L8.49336 10.034C8.39707 10.1303 8.27754 10.2 8.14805 10.2366L6.20566 10.7911L6.76016 8.84868C6.79668 8.71919 6.86641 8.59966 6.9627 8.50337L6.96602 8.50669ZM12.3881 0.830127L5.83711 7.37778C5.54824 7.66665 5.33906 8.02192 5.22949 8.4104L4.27988 11.7307C4.2002 12.0096 4.27656 12.3084 4.48242 12.5143C4.68828 12.7202 4.98711 12.7965 5.26602 12.7168L8.58633 11.7672C8.97813 11.6543 9.3334 11.4452 9.61895 11.1596L16.1699 4.61196C17.1029 3.67895 17.1029 2.16489 16.1699 1.23188L15.7682 0.830127C14.8352 -0.102881 13.3211 -0.102881 12.3881 0.830127ZM2.92188 2.12505C1.3082 2.12505 0 3.43325 0 5.04692V14.0782C0 15.6918 1.3082 17 2.92188 17H11.9531C13.5668 17 14.875 15.6918 14.875 14.0782V10.3594C14.875 9.91782 14.5197 9.56255 14.0781 9.56255C13.6365 9.56255 13.2812 9.91782 13.2812 10.3594V14.0782C13.2812 14.812 12.6869 15.4063 11.9531 15.4063H2.92188C2.18809 15.4063 1.59375 14.812 1.59375 14.0782V5.04692C1.59375 4.31313 2.18809 3.7188 2.92188 3.7188H6.64062C7.08223 3.7188 7.4375 3.36353 7.4375 2.92192C7.4375 2.48032 7.08223 2.12505 6.64062 2.12505H2.92188Z" fill="#0056BB"/>
</g>
</svg>
