<svg width="40" height="40" viewBox="0 0 40 40" fill="none" xmlns="http://www.w3.org/2000/svg">
<g id="fi_94915" clip-path="url(#clip0_6_2046)">
<path id="Vector" d="M37.2753 26.601C35.2435 24.9681 33.3796 24.1743 31.5772 24.1743C28.9698 24.1743 27.0924 25.833 25.3927 27.5321C25.1972 27.7277 24.9606 27.8189 24.648 27.8189C23.2158 27.819 20.6961 26.0254 17.159 22.4878C12.9977 18.3264 11.4244 15.6795 12.4824 14.6212C15.3502 11.7543 16.2456 8.8803 11.8546 3.41949C10.2827 1.46306 8.74479 0.512207 7.15297 0.512207C5.00624 0.512207 3.37433 2.2282 1.93454 3.74233C1.68562 4.00406 1.45048 4.25131 1.21994 4.48186C-0.407376 6.10903 -0.406541 9.65825 1.2223 13.9765C3.00944 18.7145 6.53805 23.8686 11.1583 28.4895C14.7313 32.0623 18.6189 34.9496 22.4012 36.8882C25.7033 38.5808 28.9063 39.4877 31.4201 39.4877C31.4204 39.4877 31.4207 39.4877 31.4211 39.4877C32.9943 39.4877 34.2721 39.1445 35.1161 38.4466C36.8304 37.0293 40.0213 34.4039 40 31.2854C39.9883 29.6129 39.0718 28.0454 37.2753 26.601Z" fill="white"/>
</g>
<defs>
<clipPath id="clip0_6_2046">
<rect width="40" height="40" fill="white"/>
</clipPath>
</defs>
</svg>
