<svg width="22" height="22" viewBox="0 0 22 22" fill="none" xmlns="http://www.w3.org/2000/svg">
<path id="Vector" d="M18.086 3.90649C16.2059 2.0332 13.7056 1.0011 11.0418 1C5.55291 1 1.08574 5.44568 1.08353 10.9098C1.08279 12.6565 1.54129 14.3616 2.41277 15.8645L1 21L6.27905 19.6218C7.73364 20.4115 9.37123 20.8276 11.0378 20.8281H11.0419C16.5302 20.8281 20.9979 16.3821 21 10.9177C21.0011 8.26953 19.9662 5.77966 18.086 3.90649ZM11.0418 19.1544H11.0384C9.55326 19.1538 8.0967 18.7566 6.82573 18.0062L6.52362 17.8276L3.39096 18.6455L4.22711 15.6058L4.03025 15.2942C3.2017 13.9827 2.76418 12.4668 2.76492 10.9104C2.76663 6.36877 6.47971 2.67383 11.0451 2.67383C13.2559 2.67456 15.3341 3.53247 16.8967 5.08948C18.4594 6.64648 19.3195 8.71606 19.3187 10.9171C19.3168 15.4591 15.6039 19.1544 11.0418 19.1544ZM15.5819 12.9851C15.3331 12.8611 14.1097 12.2622 13.8816 12.1794C13.6537 12.0968 13.4876 12.0557 13.3219 12.3035C13.1559 12.5513 12.6792 13.1091 12.534 13.2743C12.3887 13.4396 12.2437 13.4603 11.9949 13.3363C11.746 13.2124 10.9443 12.9508 9.99384 12.1072C9.25422 11.4506 8.75488 10.6396 8.60966 10.3918C8.46467 10.1438 8.60843 10.0227 8.71882 9.88647C8.98818 9.55359 9.2579 9.20459 9.34082 9.03943C9.42385 8.87415 9.38227 8.72949 9.31996 8.60559C9.2579 8.48169 8.76028 7.26282 8.55299 6.76685C8.35085 6.28418 8.14589 6.34937 7.99306 6.3418C7.84808 6.33459 7.68212 6.33313 7.51617 6.33313C7.35033 6.33313 7.08073 6.39502 6.85259 6.64307C6.62457 6.89099 5.98185 7.48999 5.98185 8.70886C5.98185 9.92773 6.87344 11.1052 6.99782 11.2705C7.12219 11.4358 8.75243 13.937 11.2484 15.0095C11.842 15.2649 12.3054 15.4171 12.6669 15.5312C13.263 15.7197 13.8053 15.6931 14.2341 15.6294C14.7122 15.5582 15.7061 15.0303 15.9136 14.4519C16.1209 13.8734 16.1209 13.3777 16.0586 13.2743C15.9966 13.171 15.8306 13.1091 15.5819 12.9851Z" fill="white" stroke="white" stroke-width="0.0351562"/>
</svg>
