<svg width="14" height="16" viewBox="0 0 14 16" fill="none" xmlns="http://www.w3.org/2000/svg">
<path id="Vector" d="M13.7296 1.8755C14.1415 1.38983 14.0759 0.668456 13.5801 0.264917C13.0843 -0.138621 12.3479 -0.0743406 11.936 0.411334L7 6.21443L2.06401 0.411334C1.65207 -0.0743406 0.915684 -0.138621 0.419898 0.264917C-0.0758883 0.668456 -0.141507 1.38983 0.270433 1.8755L5.47983 8L0.270433 14.1245C-0.141507 14.6102 -0.0758883 15.3315 0.419898 15.7351C0.915684 16.1386 1.65207 16.0743 2.06401 15.5887L7 9.78557L11.936 15.5887C12.3479 16.0743 13.0843 16.1386 13.5801 15.7351C14.0759 15.3315 14.1415 14.6102 13.7296 14.1245L8.52017 8L13.7296 1.8755Z" fill="#0056BB"/>
</svg>
